<svg xmlns="http://www.w3.org/2000/svg" viewBox="0 0 800 600" width="800" height="600">
  <defs>
    <pattern id="tej" width="56" height="56" patternUnits="userSpaceOnUse" patternTransform="rotate(45)">
      <path d="M28 6 L50 28 L28 50 L6 28 Z" fill="none" stroke="#c9683f" stroke-width="1" opacity=".12"/>
      <path d="M28 20 L36 28 L28 36 L20 28 Z" fill="none" stroke="#d9a441" stroke-width="1" opacity=".08"/>
    </pattern>
    <radialGradient id="brillo" cx="50%" cy="40%" r="78%">
      <stop offset="0%" stop-color="#c9683f" stop-opacity=".22"/>
      <stop offset="55%" stop-color="#c9683f" stop-opacity=".06"/>
      <stop offset="100%" stop-color="#c9683f" stop-opacity="0"/>
    </radialGradient>
  </defs>
  <rect width="800" height="600" fill="#1a100b"/>
  <rect width="800" height="600" fill="url(#tej)"/>
  <rect width="800" height="600" fill="url(#brillo)"/>
  <path d="M90 68 L93.6 76.4 L102 80 L93.6 83.6 L90 92 L86.4 83.6 L78 80 L86.4 76.4 Z" fill="#f0e3cd" opacity=".5"/><path d="M700 58 L703.6 66.4 L712 70 L703.6 73.6 L700 82 L696.4 73.6 L688 70 L696.4 66.4 Z" fill="#f0e3cd" opacity=".45"/><path d="M730 488 L733.6 496.4 L742 500 L733.6 503.6 L730 512 L726.4 503.6 L718 500 L726.4 496.4 Z" fill="#f0e3cd" opacity=".4"/><path d="M80 468 L83.6 476.4 L92 480 L83.6 483.6 L80 492 L76.4 483.6 L68 480 L76.4 476.4 Z" fill="#f0e3cd" opacity=".45"/>
  <g><path d="M505 290 L550 290" stroke="#c9683f" stroke-width="6" stroke-linecap="round" opacity=".85"/><path d="M491 342 L530 365" stroke="#c9683f" stroke-width="6" stroke-linecap="round" opacity=".85"/><path d="M452 381 L475 420" stroke="#c9683f" stroke-width="6" stroke-linecap="round" opacity=".85"/><path d="M400 395 L400 440" stroke="#c9683f" stroke-width="6" stroke-linecap="round" opacity=".85"/><path d="M348 381 L325 420" stroke="#c9683f" stroke-width="6" stroke-linecap="round" opacity=".85"/><path d="M309 342 L270 365" stroke="#c9683f" stroke-width="6" stroke-linecap="round" opacity=".85"/><path d="M295 290 L250 290" stroke="#c9683f" stroke-width="6" stroke-linecap="round" opacity=".85"/><path d="M309 238 L270 215" stroke="#c9683f" stroke-width="6" stroke-linecap="round" opacity=".85"/><path d="M347 199 L325 160" stroke="#c9683f" stroke-width="6" stroke-linecap="round" opacity=".85"/><path d="M400 185 L400 140" stroke="#c9683f" stroke-width="6" stroke-linecap="round" opacity=".85"/><path d="M452 199 L475 160" stroke="#c9683f" stroke-width="6" stroke-linecap="round" opacity=".85"/><path d="M491 237 L530 215" stroke="#c9683f" stroke-width="6" stroke-linecap="round" opacity=".85"/><circle cx="400" cy="290" r="78" fill="#c9683f"/><circle cx="400" cy="290" r="60" fill="none" stroke="#1a100b" stroke-width="2" opacity=".35"/></g>
  <g font-family="Georgia, 'Times New Roman', serif" font-style="italic" font-size="26" fill="#a8957a">
    <text x="44" y="556">calor de fiesta</text>
  </g>
  <rect x="16" y="16" width="768" height="568" fill="none" stroke="#c9683f" stroke-width="2" opacity=".35"/>
  <rect x="26" y="26" width="748" height="548" fill="none" stroke="#d9a441" stroke-width="1" opacity=".18"/>
</svg>
